<svg width="96" height="30" viewBox="0 0 96 30" fill="none" xmlns="http://www.w3.org/2000/svg">
<path d="M58.6616 13.5034C58.6458 12.8049 58.2095 12.355 57.4612 12.355C57.0044 12.3551 56.5621 12.515 56.211 12.8071C55.7724 13.1847 55.5915 13.7114 55.2863 15.0046C55.1411 15.5307 55.0547 16.0713 55.0286 16.6165C55.0286 17.3942 55.6639 17.6496 56.2517 17.6496C56.6946 17.6518 57.1243 17.4992 57.4666 17.218C57.8088 16.9369 58.042 16.545 58.1258 16.1101L58.2027 15.7777H56.6089L56.8756 14.5931H60.1401L59.8937 15.6918C59.6518 16.777 59.3331 17.4462 58.6345 18.0385C57.9324 18.6089 57.0522 18.9146 56.1477 18.9021C54.312 18.9021 53.3444 17.8667 53.3444 16.7273C53.3709 16.1451 53.4603 15.5675 53.6111 15.0046C54.0316 13.1621 54.2622 12.6037 54.9857 11.9888C55.7092 11.4028 56.6161 11.0906 57.5471 11.1071C59.4958 11.1071 60.3504 12.2578 60.3504 13.5057L58.6616 13.5034Z" fill="#101010"/>
<path d="M67.0716 15.0023C66.7302 16.474 66.4883 17.3444 65.6835 18.0249C64.9612 18.5949 64.0671 18.9033 63.147 18.8998C61.4265 18.8998 60.4228 17.9073 60.4228 16.725C60.4614 16.1432 60.5553 15.5663 60.7031 15.0023C61.0467 13.526 61.2886 12.6556 62.0912 11.9774C62.8112 11.4082 63.7032 11.1005 64.621 11.1048C66.3391 11.1048 67.3542 12.095 67.3542 13.2796C67.3156 13.8616 67.221 14.4385 67.0716 15.0023ZM64.5011 12.355C64.046 12.3444 63.6036 12.5058 63.2622 12.8071C62.9186 13.1191 62.7152 13.569 62.3828 14.9932C62.2418 15.5206 62.1525 16.0605 62.1161 16.6052C62.1161 17.2834 62.6677 17.6383 63.2758 17.6383C63.7302 17.6483 64.1717 17.4869 64.5124 17.1862C64.8583 16.8742 65.0595 16.422 65.3919 15.0023C65.5314 14.4727 65.617 13.9304 65.6473 13.3836C65.6473 12.7076 65.1115 12.355 64.5011 12.355Z" fill="#101010"/>
<path d="M58.9804 7.72921H53.3286L55.1598 0.060791H56.8395L55.3248 6.47676H59.2743L58.9804 7.72921Z" fill="#101010"/>
<path d="M66.7708 1.3155H62.7919L62.3398 3.24165H65.7512L65.4596 4.48957H62.0436L61.5711 6.48128H65.6201L65.3285 7.72921H59.5839L61.4083 0.060791H67.0602L66.7708 1.3155Z" fill="#101010"/>
<path d="M73.2457 1.3268H71.0166L69.4996 7.72921H67.8177L69.3369 1.3268H67.0535L67.3452 0.060791H73.5373L73.2457 1.3268Z" fill="#101010"/>
<path d="M75.3277 1.39915L73.4152 2.52951L73.9871 0.060791H75.6284L75.3277 1.39915Z" fill="#101010"/>
<path d="M80.6903 1.79729C80.2992 1.3994 79.7995 1.23888 79.0851 1.23888C78.0271 1.23888 77.4032 1.8425 77.4032 2.40316C77.4032 2.88696 77.8553 3.04974 78.373 3.15599L79.1236 3.3052C80.627 3.61944 81.1718 4.20949 81.1718 5.29917C81.1718 7.01959 79.4559 7.78598 77.5546 7.78598C76.1281 7.78598 75.2577 7.49435 74.4981 6.72569L75.7189 5.8214C76.2027 6.3052 76.8493 6.52449 77.7061 6.52449C78.7144 6.52449 79.5147 6.03843 79.5147 5.41221C79.5147 4.86285 79.1304 4.68199 78.5561 4.55991L77.8078 4.40166C76.3157 4.08741 75.7415 3.3685 75.7415 2.59307C75.7415 1.13037 77.0821 0 79.2954 0C80.3534 0 81.2984 0.302939 81.893 0.924642L80.6903 1.79729Z" fill="#101010"/>
<path d="M59.3195 26.0597C59.8462 26.3378 60.1899 26.6905 60.1899 27.4026C60.1899 28.9422 58.8628 29.9437 57.1311 29.9437H53.3353L55.1575 22.2798H58.4446C60.113 22.2798 60.798 23.1276 60.798 24.0567C60.798 24.7462 60.4702 25.5646 59.3195 26.0597ZM57.538 26.6837H55.804L55.3338 28.6822H57.0926C57.9721 28.6822 58.5033 28.1577 58.5033 27.4682C58.492 27.007 58.1868 26.6747 57.538 26.6747V26.6837ZM58.1484 23.5413H56.5455L56.0934 25.4245H57.7121C58.7023 25.4245 59.0979 24.7869 59.0979 24.2941C59.0911 23.9279 58.9148 23.5322 58.1484 23.5322V23.5413Z" fill="#101010"/>
<path d="M67.7362 23.5187H63.7641L63.312 25.4471H66.7392L66.4453 26.695H63.0068L62.5365 28.6845H66.5878L66.2939 29.9346H60.5516L62.3738 22.2708H68.0256L67.7362 23.5187Z" fill="#101010"/>
<path d="M71.2426 26.8465L70.4988 29.9346H68.8168L69.5697 26.7922L67.9261 22.2708H69.7098L70.6752 25.4358L73.0196 22.2708H74.8801L71.2426 26.8465Z" fill="#101010"/>
<path d="M80.2539 26.1046C79.9103 27.5741 79.6661 28.4467 78.8658 29.1272C78.1439 29.696 77.2506 30.0035 76.3315 29.9999C74.6111 29.9999 73.6028 29.0097 73.6028 27.8273C73.6438 27.2453 73.7399 26.6685 73.89 26.1046C74.2336 24.6261 74.4755 23.758 75.2803 23.0798C75.9966 22.5145 76.884 22.2099 77.7965 22.2162C79.5169 22.2162 80.5343 23.2064 80.5343 24.391C80.4972 24.97 80.4033 25.544 80.2539 26.1046ZM77.6835 23.455C77.2291 23.445 76.7876 23.6064 76.4468 23.9072C76.1032 24.2192 75.8952 24.6713 75.5674 26.0956C75.4248 26.6227 75.3346 27.1626 75.2984 27.7075C75.2984 28.3857 75.8478 28.7406 76.4581 28.7406C76.9115 28.7488 77.3517 28.5875 77.6925 28.2885C78.0384 27.972 78.2419 27.5221 78.5742 26.1024C78.7119 25.5725 78.7967 25.0303 78.8274 24.4837C78.8274 23.7987 78.2916 23.455 77.6835 23.455Z" fill="#101010"/>
<path d="M86.9231 29.9346H85.4966L83.1409 25.1554L81.9924 29.9437H80.3105L82.1326 22.2798H83.5591L85.9284 27.0793L87.0588 22.2798H88.7407L86.9231 29.9346Z" fill="#101010"/>
<path d="M95.351 26.0733C94.9169 27.9452 94.6728 28.5443 93.8973 29.1841C93.2869 29.6747 92.4346 29.9346 91.4105 29.9346H88.1777L90.0021 22.2708H92.9704C94.4693 22.2708 95.6426 22.9286 95.6426 24.4139C95.6426 24.7463 95.5929 25.0921 95.351 26.0733ZM92.6765 23.5187H91.3902L90.1671 28.6845H91.4422C91.9187 28.7062 92.3874 28.558 92.7647 28.2662C93.1355 27.9655 93.3367 27.5247 93.669 26.0733C93.8082 25.5687 93.902 25.0527 93.9493 24.5315C93.9493 23.8442 93.4475 23.5187 92.6765 23.5187Z" fill="#101010"/>
<path d="M27.7031 0.976664C25.4824 0.306006 23.1726 -0.0225531 20.8531 0.00228649C18.5335 -0.0225531 16.2237 0.306006 14.003 0.976664C8.93219 2.60439 5.45065 5.98419 5.45065 9.89301C5.45065 15.3889 12.3459 19.8402 20.8531 19.8402C29.3602 19.8402 36.2555 15.3843 36.2555 9.89301C36.2555 5.98419 32.7717 2.60439 27.7031 0.976664ZM20.8531 15.5652C19.5848 15.5652 18.5471 13.0784 18.4861 9.93822C19.2502 10.0083 20.0414 10.0445 20.8531 10.0445C21.6647 10.0445 22.4559 10.0083 23.22 9.93822C23.159 13.0716 22.1191 15.5652 20.8531 15.5652ZM18.6466 7.48758C18.9925 5.28789 19.8493 3.73024 20.8531 3.73024C21.8568 3.73024 22.7136 5.28789 23.0595 7.48758C22.3542 7.55088 21.6149 7.58479 20.8531 7.58479C20.0912 7.58479 19.3519 7.55088 18.6466 7.48758ZM24.4092 7.32029C23.8937 3.87041 22.4966 1.3949 20.8531 1.3949C19.2095 1.3949 17.8124 3.88171 17.2969 7.32029C14.1681 6.84327 11.9819 5.71291 11.9819 4.42881C11.9819 2.68578 15.954 1.26378 20.8531 1.26378C25.7521 1.26378 29.7242 2.67674 29.7242 4.42881C29.7242 5.71291 27.5448 6.84327 24.4092 7.32029ZM7.69783 9.52903C7.69783 7.84252 8.34666 6.26453 9.47929 4.90582C9.46569 4.99941 9.45889 5.09385 9.45894 5.18842C9.45894 7.30899 12.6466 9.10401 17.0912 9.78223C17.0912 9.94274 17.0912 10.1033 17.0912 10.266C17.0912 14.2065 18.1854 17.5433 19.6978 18.6941C12.9744 18.2849 7.70235 14.3421 7.70235 9.53807M22.0173 18.6941C23.5298 17.5433 24.624 14.2065 24.624 10.266C24.624 10.1033 24.624 9.94274 24.624 9.78223C29.0663 9.11983 32.254 7.31803 32.254 5.19746C32.254 5.10289 32.2472 5.00845 32.2336 4.91487C33.364 6.27131 34.0173 7.85382 34.0173 9.53807C34.0173 14.3421 28.743 18.2849 22.0219 18.6941" fill="#101010"/>
<path d="M5.97965 22.8425H0V24.1628H2.20874L2.20648 29.792H3.77317L3.77091 24.1628H5.97965V22.8425Z" fill="#101010"/>
<path d="M10.0174 22.6345C9.28908 22.635 8.57729 22.8513 7.97196 23.2563C7.36663 23.6612 6.89496 24.2365 6.61657 24.9095C6.33818 25.5825 6.26557 26.3229 6.40792 27.0371C6.55028 27.7513 6.9012 28.4073 7.41633 28.9222C7.93147 29.437 8.58767 29.7875 9.30199 29.9294C10.0163 30.0713 10.7567 29.9983 11.4295 29.7195C12.1023 29.4406 12.6773 28.9686 13.0819 28.363C13.4864 27.7575 13.7024 27.0455 13.7024 26.3173C13.7012 25.3405 13.3125 24.4041 12.6216 23.7137C11.9307 23.0232 10.9941 22.6351 10.0174 22.6345ZM11.826 27.4318C11.7057 27.7355 11.5099 28.0035 11.2571 28.2104C11.0043 28.4174 10.7029 28.5563 10.3813 28.6142C10.1413 28.6564 9.89571 28.6564 9.65565 28.6142C9.33414 28.5563 9.03271 28.4174 8.77991 28.2104C8.52711 28.0035 8.33131 27.7355 8.21104 27.4318C7.93074 26.7144 7.93074 25.9178 8.21104 25.2005C8.33186 24.8982 8.52768 24.6316 8.78002 24.4259C9.03237 24.2203 9.33293 24.0822 9.65339 24.0249C9.89345 23.9827 10.139 23.9827 10.3791 24.0249C10.7004 24.0823 11.0018 24.2209 11.2546 24.4274C11.5074 24.6339 11.7033 24.9016 11.8237 25.205C12.104 25.9224 12.104 26.719 11.8237 27.4363" fill="#101010"/>
<path d="M13.7272 22.8425H15.572L17.2947 25.8312L19.0174 22.8425H20.8576L18.0769 27.2193V29.792H16.5125V27.2193L13.7272 22.8425Z" fill="#101010"/>
<path d="M20.8869 26.3173C20.886 25.5879 21.1014 24.8747 21.506 24.2677C21.9105 23.6608 22.4859 23.1875 23.1595 22.9077C23.833 22.6278 24.5744 22.554 25.2899 22.6956C26.0054 22.8372 26.6628 23.1878 27.179 23.7031C27.6953 24.2183 28.0471 24.8751 28.19 25.5904C28.3329 26.3056 28.2604 27.0471 27.9818 27.7212C27.7032 28.3952 27.231 28.9715 26.6248 29.3772C26.0186 29.7828 25.3058 29.9996 24.5764 30C24.0923 30.0006 23.6128 29.9058 23.1654 29.721C22.7179 29.5362 22.3112 29.2651 21.9686 28.9231C21.626 28.5811 21.3541 28.1749 21.1685 27.7278C20.9829 27.2807 20.8872 26.8014 20.8869 26.3173ZM24.5764 28.6458C24.6977 28.6456 24.8187 28.635 24.9381 28.6142C25.2593 28.5563 25.5605 28.4176 25.8132 28.2112C26.066 28.0047 26.262 27.7373 26.3828 27.4341C26.6631 26.7167 26.6631 25.9201 26.3828 25.2027C26.2625 24.899 26.0667 24.631 25.8139 24.4241C25.5611 24.2172 25.2597 24.0782 24.9381 24.0204C24.6981 23.9782 24.4525 23.9782 24.2124 24.0204C23.8909 24.0782 23.5895 24.2172 23.3367 24.4241C23.0839 24.631 22.8881 24.899 22.7678 25.2027C22.4875 25.9201 22.4875 26.7167 22.7678 27.4341C22.8886 27.7373 23.0846 28.0047 23.3373 28.2112C23.5901 28.4176 23.8913 28.5563 24.2124 28.6142C24.3326 28.6351 24.4544 28.6457 24.5764 28.6458Z" fill="#101010"/>
<path d="M39.3933 28.2571H36.4318L35.862 29.7854H34.1213L36.9404 22.8381H38.8869L41.7061 29.7854H39.9653L39.3933 28.2571ZM38.9412 27.0408L37.9171 24.2963L36.8907 27.0408H38.9412Z" fill="#101010"/>
<path d="M34.5802 22.8425H28.6028V24.1628H30.8093V29.792H32.3738V24.1628H34.5802V22.8425Z" fill="#101010"/>
</svg>
